<mxfile host="65bd71144e">
    <diagram id="iIM0AvENO1vY3d9XulM-" name="Page-1">
        <mxGraphModel dx="586" dy="1714" grid="1" gridSize="10" guides="1" tooltips="1" connect="1" arrows="1" fold="1" page="1" pageScale="1" pageWidth="850" pageHeight="1100" background="#ffffff" math="0" shadow="0">
            <root>
                <mxCell id="0"/>
                <mxCell id="1" parent="0"/>
                <mxCell id="13" value="" style="fontStyle=0;verticalAlign=top;align=center;spacingTop=-2;fillColor=none;rounded=0;whiteSpace=wrap;html=1;strokeColor=#00882B;strokeWidth=2;dashed=1;container=1;collapsible=0;expand=0;recursiveResize=0;" parent="1" vertex="1">
                    <mxGeometry x="520" y="280" width="200" height="240" as="geometry"/>
                </mxCell>
                <mxCell id="4" value="" style="edgeStyle=none;html=1;" parent="1" source="2" target="3" edge="1">
                    <mxGeometry relative="1" as="geometry"/>
                </mxCell>
                <mxCell id="6" value="" style="edgeStyle=none;html=1;" parent="1" source="2" target="5" edge="1">
                    <mxGeometry relative="1" as="geometry"/>
                </mxCell>
                <mxCell id="2" value="数值类型" style="whiteSpace=wrap;html=1;fontSize=14;align=left;fillColor=#0085FC;strokeColor=none;fontColor=#FFFFFF;shadow=0;dashed=0;strokeWidth=1;spacingLeft=0;fontStyle=1;spacing=5;" parent="1" vertex="1">
                    <mxGeometry x="90" y="270" width="120" height="60" as="geometry"/>
                </mxCell>
                <mxCell id="24" style="edgeStyle=none;html=1;exitX=1;exitY=0.5;exitDx=0;exitDy=0;entryX=-0.012;entryY=0.467;entryDx=0;entryDy=0;entryPerimeter=0;" parent="1" source="3" target="23" edge="1">
                    <mxGeometry relative="1" as="geometry"/>
                </mxCell>
                <mxCell id="3" value="宽度&lt;br&gt;（指用来表示一个值的位数&lt;br&gt;&amp;nbsp; 位宽与顶层芯片架构有关系）" style="rounded=1;whiteSpace=wrap;html=1;fontSize=14;align=left;fillColor=#0085FC;strokeColor=none;fontColor=#FFFFFF;shadow=0;dashed=0;strokeWidth=1;spacingLeft=0;fontStyle=1;spacing=5;" parent="1" vertex="1">
                    <mxGeometry x="270" y="160" width="200" height="60" as="geometry"/>
                </mxCell>
                <mxCell id="7" style="edgeStyle=none;html=1;exitX=0.5;exitY=0;exitDx=0;exitDy=0;entryX=0.5;entryY=1;entryDx=0;entryDy=0;" parent="1" source="5" target="3" edge="1">
                    <mxGeometry relative="1" as="geometry"/>
                </mxCell>
                <mxCell id="15" style="edgeStyle=none;html=1;exitX=1;exitY=0.5;exitDx=0;exitDy=0;entryX=0;entryY=0.5;entryDx=0;entryDy=0;" parent="1" source="5" target="13" edge="1">
                    <mxGeometry relative="1" as="geometry"/>
                </mxCell>
                <mxCell id="16" value="&amp;nbsp;3种" style="edgeLabel;html=1;align=center;verticalAlign=middle;resizable=0;points=[];" parent="15" vertex="1" connectable="0">
                    <mxGeometry x="-0.48" y="-3" relative="1" as="geometry">
                        <mxPoint x="7" y="-3" as="offset"/>
                    </mxGeometry>
                </mxCell>
                <mxCell id="5" value="&amp;nbsp;编码" style="rounded=1;whiteSpace=wrap;html=1;fontSize=14;align=left;fillColor=#0085FC;strokeColor=none;fontColor=#FFFFFF;shadow=0;dashed=0;strokeWidth=1;spacingLeft=0;fontStyle=1;spacing=5;" parent="1" vertex="1">
                    <mxGeometry x="270" y="370" width="200" height="60" as="geometry"/>
                </mxCell>
                <mxCell id="18" value="" style="edgeStyle=none;html=1;" parent="1" source="10" target="17" edge="1">
                    <mxGeometry relative="1" as="geometry"/>
                </mxCell>
                <mxCell id="10" value="无符号二进制" style="whiteSpace=wrap;html=1;fontSize=14;align=left;fillColor=#FFBC26;strokeColor=none;fontColor=#000000;shadow=0;dashed=0;strokeWidth=1;spacingLeft=0;fontStyle=1;spacing=5;" parent="1" vertex="1">
                    <mxGeometry x="570" y="295" width="100" height="50" as="geometry"/>
                </mxCell>
                <mxCell id="20" value="" style="edgeStyle=none;html=1;" parent="1" source="11" target="19" edge="1">
                    <mxGeometry relative="1" as="geometry"/>
                </mxCell>
                <mxCell id="11" value="二进制补码" style="whiteSpace=wrap;html=1;fontSize=14;align=left;fillColor=#FFBC26;strokeColor=none;fontColor=#000000;shadow=0;dashed=0;strokeWidth=1;spacingLeft=0;fontStyle=1;spacing=5;" parent="1" vertex="1">
                    <mxGeometry x="570" y="375" width="100" height="50" as="geometry"/>
                </mxCell>
                <mxCell id="49" value="" style="edgeStyle=none;html=1;" parent="1" source="12" target="48" edge="1">
                    <mxGeometry relative="1" as="geometry"/>
                </mxCell>
                <mxCell id="12" value="IEEE 754" style="whiteSpace=wrap;html=1;fontSize=14;align=left;fillColor=#FFBC26;strokeColor=none;fontColor=#000000;shadow=0;dashed=0;strokeWidth=1;spacingLeft=0;fontStyle=1;spacing=5;" parent="1" vertex="1">
                    <mxGeometry x="570" y="455" width="100" height="50" as="geometry"/>
                </mxCell>
                <mxCell id="17" value="每个位表示值的一部分&lt;br&gt;只能表示整数&lt;br&gt;一个N位无符号整数可以表示&lt;br&gt;0～2^N - 1之间的值" style="whiteSpace=wrap;html=1;fontSize=14;align=left;fillColor=#FFBC26;strokeColor=none;fontColor=#000000;shadow=0;dashed=0;strokeWidth=1;spacingLeft=0;fontStyle=1;spacing=5;" parent="1" vertex="1">
                    <mxGeometry x="750" y="280" width="220" height="80" as="geometry"/>
                </mxCell>
                <mxCell id="22" value="" style="edgeStyle=none;html=1;" parent="1" source="19" target="21" edge="1">
                    <mxGeometry relative="1" as="geometry"/>
                </mxCell>
                <mxCell id="19" value="保留1位作为符号位，1负，0正&lt;br&gt;正数与【无符号二进制】相同&lt;br&gt;负数编码为2^N - 绝对值" style="whiteSpace=wrap;html=1;fontSize=14;align=left;fillColor=#FFBC26;strokeColor=none;fontColor=#000000;shadow=0;dashed=0;strokeWidth=1;spacingLeft=0;fontStyle=1;spacing=5;" parent="1" vertex="1">
                    <mxGeometry x="750" y="370" width="220" height="60" as="geometry"/>
                </mxCell>
                <mxCell id="21" value="比如4位带符号编码：&lt;br&gt;-8编码为2^4-8=8&amp;nbsp; &amp;nbsp;8编码为1000 则-8编码为1000&lt;br&gt;-3编码为2^4-3=13 13编码为1101 则-3编码为1101" style="rounded=1;whiteSpace=wrap;html=1;fontSize=14;align=left;fillColor=#FFBC26;strokeColor=none;fontColor=#000000;shadow=0;dashed=0;strokeWidth=1;spacingLeft=0;fontStyle=1;spacing=5;" parent="1" vertex="1">
                    <mxGeometry x="1040" y="365" width="330" height="60" as="geometry"/>
                </mxCell>
                <mxCell id="23" value="上溢、下溢&lt;br&gt;（运算的结果不能用给定位数表示）" style="html=1;shadow=0;dashed=0;shape=mxgraph.bootstrap.rrect;rSize=5;strokeColor=none;strokeWidth=1;fillColor=#DB2843;fontColor=#FFFFFF;whiteSpace=wrap;align=left;verticalAlign=middle;spacingLeft=0;fontStyle=1;fontSize=14;spacing=5;" parent="1" vertex="1">
                    <mxGeometry x="560" y="-80" width="240" height="60" as="geometry"/>
                </mxCell>
                <mxCell id="25" value="b &amp;gt; 0且&lt;br&gt;a &amp;gt; MAX - b&amp;nbsp;" style="html=1;fillColor=#10739E;strokeColor=none;shadow=0;fontSize=12;fontColor=#FFFFFF;align=center;fontStyle=0;whiteSpace=wrap;rounded=0;" parent="1" vertex="1">
                    <mxGeometry x="595" y="65" width="100" height="100" as="geometry"/>
                </mxCell>
                <mxCell id="26" value="b &amp;lt; 0 且&lt;br&gt;a &amp;gt; MAX + b" style="html=1;fillColor=#F2931E;strokeColor=none;shadow=0;fontSize=12;fontColor=#FFFFFF;align=center;fontStyle=0;whiteSpace=wrap;rounded=0;" parent="1" vertex="1">
                    <mxGeometry x="700" y="65" width="100" height="100" as="geometry"/>
                </mxCell>
                <mxCell id="27" value="b &amp;lt; 0且&lt;br&gt;a &amp;lt; MIN - b" style="html=1;fillColor=#AE4132;strokeColor=none;shadow=0;fontSize=12;fontColor=#FFFFFF;align=center;fontStyle=0;whiteSpace=wrap;rounded=0;" parent="1" vertex="1">
                    <mxGeometry x="595" y="170" width="100" height="100" as="geometry"/>
                </mxCell>
                <mxCell id="28" value="b &amp;gt; 0 且&lt;br&gt;a &amp;lt; MIN + b" style="html=1;fillColor=#23445D;strokeColor=none;shadow=0;fontSize=12;fontColor=#FFFFFF;align=center;fontStyle=0;whiteSpace=wrap;rounded=0;" parent="1" vertex="1">
                    <mxGeometry x="700" y="170" width="100" height="100" as="geometry"/>
                </mxCell>
                <mxCell id="29" value="上溢" style="html=1;fillColor=#CCCCCC;strokeColor=none;shadow=0;fontSize=14;fontColor=#FFFFFF;align=center;fontStyle=1;whiteSpace=wrap;horizontal=0;rounded=0;" parent="1" vertex="1">
                    <mxGeometry x="560" y="65" width="30" height="100" as="geometry"/>
                </mxCell>
                <mxCell id="30" value="下溢" style="html=1;fillColor=#CCCCCC;strokeColor=none;shadow=0;fontSize=14;fontColor=#FFFFFF;align=center;fontStyle=1;whiteSpace=wrap;horizontal=0;rounded=0;" parent="1" vertex="1">
                    <mxGeometry x="560" y="170" width="30" height="100" as="geometry"/>
                </mxCell>
                <mxCell id="31" value="加法" style="html=1;fillColor=#CCCCCC;strokeColor=none;shadow=0;fontSize=14;fontColor=#FFFFFF;align=center;fontStyle=1;whiteSpace=wrap;rounded=0;" parent="1" vertex="1">
                    <mxGeometry x="595" y="30" width="100" height="30" as="geometry"/>
                </mxCell>
                <mxCell id="32" value="减法" style="html=1;fillColor=#CCCCCC;strokeColor=none;shadow=0;fontSize=14;fontColor=#FFFFFF;align=center;fontStyle=1;whiteSpace=wrap;rounded=0;" parent="1" vertex="1">
                    <mxGeometry x="700" y="30" width="100" height="30" as="geometry"/>
                </mxCell>
                <mxCell id="37" value="b &amp;gt; 0,a &amp;gt; 0且&lt;br&gt;a &amp;gt; MAX / b&lt;br&gt;b &amp;lt; 0,a &amp;lt; 0且&lt;br&gt;a &amp;lt; MAX / b" style="html=1;fillColor=#10739E;strokeColor=none;shadow=0;fontSize=12;fontColor=#FFFFFF;align=center;fontStyle=0;whiteSpace=wrap;rounded=0;" parent="1" vertex="1">
                    <mxGeometry x="805" y="65" width="100" height="100" as="geometry"/>
                </mxCell>
                <mxCell id="38" value="a == MIN且&lt;br&gt;b == -1" style="html=1;fillColor=#F2931E;strokeColor=none;shadow=0;fontSize=12;fontColor=#FFFFFF;align=center;fontStyle=0;whiteSpace=wrap;rounded=0;" parent="1" vertex="1">
                    <mxGeometry x="910" y="65" width="100" height="100" as="geometry"/>
                </mxCell>
                <mxCell id="39" value="b &amp;gt; 0,a &amp;lt; 0且&lt;br&gt;a &amp;lt; MIN / b&lt;br&gt;b &amp;lt; 0, a &amp;gt; 0且&lt;br&gt;a &amp;gt; MIN / b" style="html=1;fillColor=#AE4132;strokeColor=none;shadow=0;fontSize=12;fontColor=#FFFFFF;align=center;fontStyle=0;whiteSpace=wrap;rounded=0;" parent="1" vertex="1">
                    <mxGeometry x="805" y="170" width="100" height="100" as="geometry"/>
                </mxCell>
                <mxCell id="40" value="N/A" style="html=1;fillColor=#23445D;strokeColor=none;shadow=0;fontSize=12;fontColor=#FFFFFF;align=center;fontStyle=0;whiteSpace=wrap;rounded=0;" parent="1" vertex="1">
                    <mxGeometry x="910" y="170" width="100" height="100" as="geometry"/>
                </mxCell>
                <mxCell id="41" value="乘法" style="html=1;fillColor=#CCCCCC;strokeColor=none;shadow=0;fontSize=14;fontColor=#FFFFFF;align=center;fontStyle=1;whiteSpace=wrap;rounded=0;" parent="1" vertex="1">
                    <mxGeometry x="805" y="30" width="100" height="30" as="geometry"/>
                </mxCell>
                <mxCell id="42" value="除法" style="html=1;fillColor=#CCCCCC;strokeColor=none;shadow=0;fontSize=14;fontColor=#FFFFFF;align=center;fontStyle=1;whiteSpace=wrap;rounded=0;" parent="1" vertex="1">
                    <mxGeometry x="910" y="30" width="100" height="30" as="geometry"/>
                </mxCell>
                <mxCell id="47" value="检查a，b在[MIN, MAX]范围内发生溢出，MIN = -MAX - 1" style="shape=mxgraph.infographic.parallelogram;dx=5;;html=1;fillColor=#B1DDF0;strokeColor=none;shadow=0;fontSize=17;fontColor=#FFFFFF;align=left;spacingLeft=10;fontStyle=1;" parent="1" vertex="1">
                    <mxGeometry x="560" y="-15" width="470" height="40" as="geometry"/>
                </mxCell>
                <mxCell id="48" value="64位-&amp;gt;符号位、指数位(11)、尾数位" style="whiteSpace=wrap;html=1;fontSize=14;align=left;fillColor=#FFBC26;strokeColor=none;fontColor=#000000;shadow=0;dashed=0;strokeWidth=1;spacingLeft=0;fontStyle=1;spacing=5;" parent="1" vertex="1">
                    <mxGeometry x="750" y="450" width="230" height="60" as="geometry"/>
                </mxCell>
            </root>
        </mxGraphModel>
    </diagram>
</mxfile>
